<svg xmlns="http://www.w3.org/2000/svg" xmlns:xlink="http://www.w3.org/1999/xlink" width="100px" zoomAndPan="magnify" viewBox="0 0 375 374.999991" height="100px" preserveAspectRatio="xMidYMid meet" version="1.0"><defs><g/></defs><g fill="#e8e8e8" fill-opacity="1"><g transform="translate(60.365626, 246.749984)"><g><path d="M 3 0 L 3 -1.5 L 6 -2.546875 C 9.394531 -3.648438 11.09375 -6.5 11.09375 -11.09375 L 11.09375 -87.90625 C 11.09375 -89.90625 10.867188 -91.503906 10.421875 -92.703125 C 9.972656 -93.898438 8.800781 -94.898438 6.90625 -95.703125 L 3 -97.5 L 3 -99 L 31.953125 -99 L 59.703125 -26.40625 L 85.796875 -99 L 115.34375 -99 L 115.34375 -97.5 L 112.953125 -96.59375 C 111.046875 -95.894531 109.742188 -94.921875 109.046875 -93.671875 C 108.347656 -92.421875 108 -90.796875 108 -88.796875 L 108 -10.34375 C 108 -8.34375 108.25 -6.789062 108.75 -5.6875 C 109.25 -4.59375 110.445312 -3.644531 112.34375 -2.84375 L 115.34375 -1.5 L 115.34375 0 L 78 0 L 78 -1.5 L 81.15625 -2.84375 C 83.050781 -3.644531 84.25 -4.59375 84.75 -5.6875 C 85.25 -6.789062 85.5 -8.34375 85.5 -10.34375 L 85.5 -44.09375 L 85.796875 -87 L 54.453125 0 L 46.953125 0 L 14.25 -85.953125 L 14.703125 -48.59375 L 14.703125 -10.796875 C 14.703125 -8.597656 15.023438 -6.820312 15.671875 -5.46875 C 16.328125 -4.125 17.601562 -3.148438 19.5 -2.546875 L 22.796875 -1.5 L 22.796875 0 Z M 3 0 "/></g></g></g><g fill="#e8e8e8" fill-opacity="1"><g transform="translate(185.465654, 246.749984)"><g><path d="M 35.40625 0.453125 L 8.84375 -88.796875 C 8.144531 -91.097656 7.394531 -92.773438 6.59375 -93.828125 C 5.800781 -94.878906 4.40625 -95.851562 2.40625 -96.75 L 0.59375 -97.5 L 0.59375 -99 L 40.34375 -99 L 40.34375 -97.5 L 37.203125 -96.296875 C 34.898438 -95.398438 33.347656 -94.300781 32.546875 -93 C 31.742188 -91.695312 31.695312 -89.894531 32.40625 -87.59375 L 48.75 -25.203125 L 66.453125 -77.546875 L 63 -88.203125 C 62.300781 -90.296875 61.648438 -91.894531 61.046875 -93 C 60.453125 -94.101562 59.453125 -95.003906 58.046875 -95.703125 L 54.75 -97.5 L 54.75 -99 L 92.40625 -99 L 92.40625 -97.5 L 87.75 -95.703125 C 85.75 -95.003906 84.625 -93.976562 84.375 -92.625 C 84.125 -91.269531 84.347656 -89.546875 85.046875 -87.453125 L 104.09375 -23.703125 L 122.09375 -86.25 C 122.800781 -88.644531 123.050781 -90.742188 122.84375 -92.546875 C 122.644531 -94.347656 121.394531 -95.648438 119.09375 -96.453125 L 115.953125 -97.5 L 115.953125 -99 L 136.796875 -99 L 136.796875 -97.5 L 132.90625 -96 C 130.90625 -95.300781 129.503906 -94.203125 128.703125 -92.703125 C 127.898438 -91.203125 127.195312 -89.351562 126.59375 -87.15625 L 101.703125 0.453125 L 91.34375 0.453125 L 68.84375 -70.046875 L 45.75 0.453125 Z M 35.40625 0.453125 "/></g></g></g></svg>